<svg xmlns="http://www.w3.org/2000/svg" xmlns:xlink="http://www.w3.org/1999/xlink" width="32" height="32" viewBox="0 0 32 32"><defs><clipPath id="a"><rect width="32" height="32" fill="none"/></clipPath><clipPath id="b"><rect width="20" height="20" transform="translate(225 190)" fill="#fff" stroke="#707070" stroke-width="1"/></clipPath></defs><g clip-path="url(#a)"><g transform="translate(-288 -228)"><circle cx="16" cy="16" r="16" transform="translate(288 228)" fill="#008ae3"/><g transform="translate(69 44)" clip-path="url(#b)"><g transform="translate(225 192)"><path d="M17.609,5.183H15.522L14.37,3.443A2.4,2.4,0,0,0,12.391,2.4H7.609A2.4,2.4,0,0,0,5.63,3.443L4.478,5.183H2.391A2.384,2.384,0,0,0,0,7.574v8.435A2.384,2.384,0,0,0,2.391,18.4H17.609A2.384,2.384,0,0,0,20,16.009V7.574A2.384,2.384,0,0,0,17.609,5.183ZM10,16.443a5.38,5.38,0,1,1,5.391-5.37A5.39,5.39,0,0,1,10,16.443Zm7.3-7.891h-.957a.707.707,0,0,1,0-1.413h.87a.706.706,0,0,1,.739.674A.688.688,0,0,1,17.3,8.552Z" transform="translate(0 -2.4)" fill="#fff"/><g transform="translate(7 5.674)"><path d="M11.4,9.209a2.989,2.989,0,1,0,3,2.978A3.006,3.006,0,0,0,11.4,9.209Z" transform="translate(-8.4 -9.209)" fill="#fff"/></g></g></g></g></g></svg>